<svg xmlns="http://www.w3.org/2000/svg" width="1600" height="1600" preserveAspectRatio="xMidYMid meet" version="1.0" viewBox="0 0 1200 1200"><metadata>Created by potrace 1.11, written by Peter Selinger 2001-2013</metadata><g fill="#000" stroke="none"><path d="M1957 11946 c-4 -9 -11 -16 -17 -16 -6 0 -9 4 -6 8 2 4 -4 8 -14 8 -10 0 -16 -4 -14 -8 3 -4 0 -8 -5 -8 -6 0 -11 5 -11 10 0 6 -5 10 -11 10 -5 0 -7 -5 -3 -11 5 -8 -1 -10 -20 -7 -14 3 -26 2 -26 -2 0 -10 -44 -6 -52 5 -5 7 -8 7 -8 0 0 -11 -90 -12 -108 -1 -7 4 -12 3 -12 -1 0 -5 -18 -8 -40 -7 -28 0 -44 -4 -50 -15 -9 -17 -85 -22 -110 -6 -9 5 -11 4 -6 -3 4 -7 1 -12 -9 -12 -8 0 -18 -6 -21 -14 -5 -13 -49 -16 -70 -4 -9 5 -45 -27 -38 -35 2 -2 -16 -3 -40 -2 -33 1 -43 -2 -39 -12 5 -12 -8 -18 -30 -14 -20 3 -46 -20 -41 -37 4 -10 2 -13 -3 -7 -19 24 -51 11 -66 -25 -3 -9 -6 -10 -6 -2 -1 19 -25 14 -39 -9 -7 -11 -19 -18 -27 -15 -7 2 -25 -6 -40 -20 -27 -25 -41 -31 -30 -14 3 6 2 10 -3 10 -13 0 -33 -25 -27 -33 3 -4 2 -5 -1 -3 -10 8 -32 -18 -26 -29 3 -5 -3 -3 -13 5 -13 10 -16 11 -11 2 5 -9 3 -12 -6 -10 -8 2 -31 -14 -50 -35 -23 -23 -39 -34 -43 -27 -5 8 -11 8 -21 -1 -7 -6 -11 -16 -7 -22 3 -6 1 -7 -5 -3 -7 4 -12 2 -12 -4 0 -6 -5 -8 -12 -4 -8 5 -9 2 -5 -10 4 -10 3 -15 -3 -11 -6 3 -13 -1 -16 -9 -3 -9 -10 -13 -15 -10 -5 3 -9 0 -9 -5 0 -6 -11 -21 -25 -33 -13 -11 -22 -26 -18 -31 3 -6 2 -7 -4 -4 -6 4 -19 -1 -29 -9 -10 -9 -12 -12 -4 -8 8 4 2 -5 -13 -19 -15 -15 -33 -27 -39 -27 -6 0 -9 -3 -5 -6 7 -7 -70 -84 -84 -84 -6 0 -7 -4 -4 -10 3 -5 1 -10 -5 -10 -6 0 -8 -5 -5 -10 4 -6 1 -9 -7 -8 -7 2 -14 -8 -16 -21 -2 -13 -12 -26 -23 -28 -16 -5 -17 -8 -7 -21 11 -13 11 -14 -1 -7 -11 6 -13 4 -7 -10 5 -15 4 -16 -8 -6 -12 10 -16 8 -21 -8 -3 -12 -12 -21 -19 -21 -6 0 -12 -9 -13 -20 -1 -13 2 -18 10 -13 7 4 6 0 -2 -10 -7 -9 -17 -14 -22 -12 -4 3 -12 -10 -18 -30 -5 -19 -24 -48 -43 -65 -18 -17 -28 -30 -23 -29 24 4 26 -2 6 -18 -11 -10 -22 -29 -23 -43 -2 -14 -11 -28 -21 -32 -12 -5 -16 -15 -13 -33 3 -14 0 -25 -5 -25 -6 0 -7 -5 -3 -12 4 -6 1 -16 -7 -22 -8 -6 -14 -17 -15 -23 -3 -37 -5 -43 -11 -42 -21 3 -24 -3 -12 -18 12 -14 12 -16 0 -8 -11 6 -13 4 -8 -8 3 -9 1 -18 -6 -21 -9 -3 -9 -5 0 -5 6 -1 9 -10 6 -22 -4 -12 -11 -18 -20 -15 -8 3 -11 2 -8 -3 3 -5 1 -13 -5 -16 -8 -5 -7 -11 1 -21 9 -11 9 -17 -1 -29 -9 -10 -9 -15 -1 -15 19 0 12 -22 -10 -27 -14 -4 -17 -8 -9 -13 9 -6 8 -14 -5 -34 -10 -14 -13 -26 -9 -26 15 0 5 -123 -11 -137 -4 -5 -5 -1 0 7 5 9 5 12 -1 7 -5 -5 -9 -1727 -9 -4282 -1 -3496 2 -4272 12 -4268 9 4 11 0 7 -11 -3 -9 -1 -16 4 -16 7 0 8 -10 2 -30 -5 -16 -5 -30 -1 -30 3 0 7 -9 7 -20 0 -11 -4 -20 -9 -20 -5 0 -5 -6 0 -12 6 -7 9 -21 8 -30 -2 -11 3 -18 12 -18 9 0 13 -6 9 -15 -3 -8 -2 -15 2 -15 9 0 9 -41 0 -56 -3 -5 0 -15 8 -22 8 -7 14 -9 15 -5 0 4 4 -1 8 -12 5 -12 4 -23 -3 -27 -8 -6 -8 -8 0 -8 6 0 10 -11 9 -25 -2 -14 1 -25 6 -25 5 0 9 -7 9 -15 0 -8 4 -15 9 -15 4 0 8 -8 8 -17 0 -35 3 -44 13 -38 9 6 15 -22 11 -53 -2 -10 5 -12 21 -8 13 3 17 3 11 0 -7 -3 -13 -10 -13 -15 0 -6 5 -7 11 -3 7 4 7 -1 -1 -16 -10 -18 -9 -21 1 -15 9 6 11 2 7 -13 -5 -18 -3 -20 11 -12 15 8 17 5 13 -22 -4 -24 -2 -29 9 -23 12 8 12 6 0 -8 -11 -15 -11 -17 1 -17 8 0 23 -9 33 -20 10 -11 14 -20 10 -20 -5 0 0 -7 11 -16 10 -8 13 -13 7 -9 -18 9 -16 -7 3 -31 8 -10 13 -13 9 -6 -11 21 4 13 16 -9 8 -15 8 -19 0 -15 -16 10 -13 -7 5 -30 8 -10 12 -13 8 -5 -5 10 -3 12 5 6 7 -4 10 -16 8 -27 -5 -16 -3 -17 11 -6 12 10 14 10 8 1 -4 -8 -2 -13 4 -13 6 0 8 -4 5 -10 -3 -6 4 -10 16 -10 12 0 19 -3 16 -7 -4 -3 -1 -13 6 -21 9 -13 9 -14 0 -8 -9 5 -11 2 -7 -8 3 -9 12 -16 20 -16 8 0 13 -3 13 -7 -4 -23 3 -34 18 -31 10 2 18 -3 18 -12 1 -8 7 -14 14 -12 7 1 10 -2 6 -8 -3 -5 -1 -10 5 -10 6 0 8 -4 5 -10 -3 -5 3 -10 14 -10 14 0 21 -6 21 -19 0 -11 9 -23 20 -26 11 -3 20 -13 20 -21 0 -8 9 -14 21 -14 11 0 17 -4 14 -10 -3 -5 -1 -10 5 -10 6 0 8 -4 5 -10 -3 -5 3 -10 15 -10 12 0 19 -4 15 -9 -3 -5 12 -24 32 -41 21 -18 31 -29 23 -25 -9 5 -12 4 -7 -1 5 -5 21 -9 35 -10 19 0 27 -5 26 -17 -1 -9 2 -14 6 -12 5 3 20 -6 33 -19 14 -14 28 -22 33 -18 4 4 5 0 2 -8 -5 -15 2 -18 49 -22 7 -1 10 -4 8 -8 -3 -4 5 -16 18 -26 21 -19 21 -19 7 0 -15 19 -14 19 13 2 25 -17 40 -35 15 -20 -7 4 -8 3 -4 -5 4 -6 12 -9 17 -6 12 8 40 -20 31 -30 -4 -4 3 -3 15 4 19 10 25 8 39 -14 16 -25 42 -37 28 -12 -6 8 -3 8 9 -1 9 -8 22 -10 28 -6 9 5 10 2 6 -9 -7 -19 8 -33 18 -17 4 7 16 1 30 -14 15 -16 30 -23 39 -20 10 4 16 1 16 -7 0 -11 3 -11 10 1 9 13 13 12 28 -5 10 -12 31 -21 52 -22 53 -2 53 -2 42 -16 -9 -10 -1 -13 38 -12 34 1 51 -3 55 -13 3 -8 12 -11 21 -8 12 4 15 2 10 -9 -4 -12 -1 -12 22 2 26 17 26 17 13 0 -13 -16 -12 -17 10 -10 29 10 57 9 82 -2 15 -6 16 -10 5 -17 -8 -6 -2 -7 20 -3 23 5 32 3 32 -7 0 -8 3 -9 8 -3 10 14 65 14 74 1 5 -7 8 -8 8 0 0 11 79 12 98 0 7 -4 12 -3 12 2 0 8 75 9 105 2 6 -1 12 -1 15 0 19 8 160 4 160 -5 0 -6 3 -7 8 0 10 14 65 14 74 1 5 -7 8 -6 8 3 0 11 3 11 15 1 8 -7 15 -8 15 -3 0 11 75 12 86 1 3 -4 15 -3 26 3 14 7 23 7 34 -2 8 -6 14 -7 14 -2 0 8 74 11 90 3 3 -1 10 -1 15 0 33 9 95 6 95 -4 0 -7 3 -7 8 -1 10 14 65 14 74 1 5 -7 8 -8 8 0 0 11 79 12 98 0 7 -4 12 -3 12 2 0 8 75 9 105 2 6 -1 12 -1 15 0 19 8 160 4 160 -5 0 -6 3 -7 8 0 10 14 65 14 74 1 5 -7 8 -7 8 -1 0 14 70 15 70 1 0 -7 3 -7 8 -1 10 14 65 14 74 1 5 -7 8 -8 8 0 0 11 79 12 98 0 7 -4 12 -3 12 2 0 8 75 9 105 2 6 -1 12 -1 15 0 19 8 98 6 93 -3 -3 -6 -1 -7 6 -3 23 14 61 17 61 4 0 -8 3 -9 8 -3 10 14 65 14 74 1 5 -7 8 -8 8 0 0 11 79 12 98 0 7 -4 12 -3 12 2 0 8 75 9 105 2 6 -1 12 -1 15 0 14 6 167 5 181 -2 9 -4 19 -4 23 0 10 9 78 10 97 1 9 -5 19 -5 23 -2 11 11 166 10 159 0 -4 -6 -1 -7 8 -1 18 11 69 12 75 2 3 -5 11 -5 17 -1 20 12 68 13 61 1 -5 -7 -2 -8 7 -2 18 11 30 12 50 3 9 -5 19 -5 23 -2 12 12 76 11 76 -1 0 -7 3 -7 8 -1 10 14 65 14 74 1 5 -7 8 -8 8 0 0 11 79 12 98 0 7 -4 12 -3 12 2 0 8 75 9 105 2 6 -1 12 -1 15 0 19 8 98 6 93 -3 -3 -6 -1 -7 6 -3 23 14 61 17 61 4 0 -8 3 -9 8 -3 10 14 65 14 74 1 5 -7 8 -7 8 -1 0 6 18 11 40 11 24 1 37 -3 33 -9 -4 -6 -1 -7 8 -1 18 11 69 12 75 2 3 -5 11 -5 17 -1 20 12 68 13 61 1 -5 -7 -2 -8 7 -2 18 11 30 12 50 3 9 -5 19 -5 23 -1 10 10 78 10 99 0 9 -5 17 -5 17 0 0 8 75 9 105 2 6 -1 12 -1 15 0 14 6 167 5 181 -2 9 -4 19 -4 23 0 10 9 78 10 97 1 9 -5 19 -5 23 -2 11 12 156 10 156 -2 0 -6 3 -7 8 0 10 14 65 14 74 1 5 -7 8 -8 8 0 0 11 79 12 98 0 7 -4 12 -3 12 2 0 8 75 9 105 2 6 -1 12 -1 15 0 19 8 160 4 160 -5 0 -6 3 -7 8 0 10 14 65 14 74 1 5 -7 8 -7 8 -1 0 14 70 15 70 1 0 -7 3 -7 8 -1 10 14 65 14 74 1 5 -7 8 -8 8 0 0 11 79 12 98 0 7 -4 12 -3 12 2 0 8 75 9 105 2 6 -1 12 -1 15 0 19 8 160 4 160 -5 0 -6 3 -7 8 0 10 14 65 14 74 1 5 -7 8 -7 8 -1 0 6 18 11 40 11 24 1 37 -3 33 -9 -4 -6 -1 -7 8 -1 18 11 69 12 75 2 3 -5 11 -5 17 -1 20 12 68 13 61 1 -5 -7 -2 -8 7 -2 18 11 30 12 50 3 9 -5 19 -5 23 -2 12 12 76 11 76 -1 0 -7 3 -7 8 -1 10 14 65 14 74 1 5 -7 8 -8 8 0 0 11 79 12 98 0 7 -4 12 -3 12 2 0 8 75 9 105 2 6 -1 12 -1 15 0 19 8 98 6 93 -3 -3 -6 -1 -7 6 -3 23 14 61 17 61 4 0 -8 3 -9 8 -3 10 14 65 14 74 1 5 -7 8 -7 8 -1 0 6 18 11 40 11 24 1 37 -3 33 -9 -4 -6 -1 -7 8 -1 18 11 69 12 75 2 3 -5 11 -5 17 -1 20 12 68 13 61 1 -5 -7 -2 -8 7 -2 18 11 69 12 75 2 3 -5 11 -5 17 -1 20 12 68 13 61 1 -5 -7 -2 -8 7 -2 18 11 69 12 75 2 3 -5 11 -5 17 -1 20 12 68 13 61 1 -5 -7 -2 -8 7 -2 18 11 30 12 50 3 9 -5 19 -5 23 -2 12 12 76 11 76 -1 0 -7 3 -7 8 -1 10 14 65 14 74 1 5 -7 8 -8 8 0 0 11 79 12 98 0 7 -4 12 -3 12 2 0 8 75 9 105 2 6 -1 12 -1 15 0 19 8 98 6 93 -3 -3 -6 -1 -7 6 -3 23 14 61 17 61 4 0 -8 3 -9 8 -3 10 14 65 14 74 1 5 -7 8 -7 8 -1 0 6 18 11 40 11 24 1 37 -3 33 -9 -4 -6 -1 -7 8 -1 18 11 69 12 75 2 3 -5 11 -5 17 -1 21 13 68 13 60 0 -5 -9 -3 -9 8 -1 17 12 58 12 78 0 10 -7 12 -5 6 5 -8 12 -6 12 8 0 9 -7 17 -9 17 -4 0 12 80 11 99 -1 9 -6 12 -5 7 2 -4 6 1 11 11 11 34 -1 56 8 69 26 13 17 19 14 15 -8 -1 -5 4 -5 10 -1 7 4 25 7 40 6 16 0 31 4 34 9 4 5 11 9 16 9 6 0 7 -5 3 -12 -4 -7 -3 -8 5 -4 8 5 9 12 2 20 -7 9 3 11 45 11 38 -1 54 2 54 12 0 7 6 14 13 14 6 1 23 2 37 4 47 3 51 5 44 17 -5 8 0 9 15 5 17 -4 20 -2 12 7 -7 8 -5 12 9 12 10 0 16 -4 13 -9 -3 -5 4 -4 16 2 11 7 21 9 21 5 0 -3 8 4 19 17 16 19 21 21 34 11 13 -11 15 -9 13 12 -2 17 1 23 8 19 18 -12 36 -12 36 -2 0 6 5 7 12 3 7 -5 9 -2 6 8 -5 11 0 15 15 14 13 -1 21 4 19 12 -2 10 2 10 20 1 21 -11 22 -11 9 5 -12 14 -12 16 1 11 9 -4 18 1 21 9 4 9 13 16 21 16 8 0 17 6 19 13 4 8 6 8 6 -3 1 -10 6 -7 17 8 9 13 22 21 30 18 7 -3 11 0 8 7 -2 7 5 18 17 25 12 8 18 9 15 4 -3 -6 2 -8 14 -5 11 3 17 9 14 14 -3 5 0 9 6 9 6 0 8 4 5 10 -4 6 1 7 11 3 13 -5 16 -3 11 10 -5 12 -1 17 13 17 14 0 18 5 13 17 -4 11 -3 14 5 9 7 -4 12 -3 12 2 0 5 11 8 25 7 14 -2 23 1 20 5 -3 5 4 11 15 15 11 4 18 11 14 16 -3 6 3 13 15 16 11 3 19 8 17 12 -5 9 52 60 60 52 4 -3 5 4 2 16 -4 16 -2 20 8 16 9 -3 14 2 14 13 0 15 2 16 9 5 7 -11 10 -9 16 8 3 11 11 21 16 21 6 0 7 5 4 10 -4 6 -3 10 2 9 23 -4 31 3 25 23 -4 16 -2 19 9 13 12 -7 12 -6 0 9 -13 16 -13 17 1 14 9 -1 16 1 15 5 -1 5 6 13 16 18 9 6 14 16 11 22 -4 7 -4 9 0 5 14 -12 49 29 43 51 -3 11 -2 20 2 19 17 -2 32 3 28 10 -6 9 19 33 26 25 4 -3 4 5 2 19 -3 17 3 29 20 42 25 19 35 43 13 30 -8 -4 -10 -3 -5 2 5 5 14 9 20 9 7 0 12 9 12 20 0 11 8 21 18 23 9 2 17 8 17 13 0 6 -6 7 -12 3 -10 -6 -10 -5 -1 7 11 14 13 19 13 39 0 5 7 7 16 3 13 -5 15 -2 9 17 -6 17 -4 21 6 14 12 -6 12 -5 1 8 -11 14 -10 17 6 22 13 4 18 15 16 36 -1 17 2 33 7 36 5 3 7 9 4 14 -3 5 0 12 6 16 8 5 10 2 5 -7 -4 -8 -1 -5 8 5 8 10 12 24 9 30 -11 16 -11 46 -1 46 5 0 6 6 2 13 -6 9 -4 9 8 -1 13 -10 16 -9 21 8 3 11 0 20 -5 20 -6 0 -5 6 2 15 8 10 9 15 2 15 -6 0 -9 7 -6 15 4 8 9 13 13 11 3 -2 12 2 19 10 7 8 9 14 5 14 -4 0 -8 18 -8 40 0 22 5 40 10 40 6 0 3 5 -5 10 -10 6 -11 10 -3 10 7 0 12 6 10 13 -1 6 5 12 13 11 10 -1 15 8 15 28 0 15 -4 28 -8 28 -4 0 -3 9 3 20 8 14 8 20 0 20 -8 0 -8 6 0 20 6 11 7 20 3 20 -10 0 -10 47 0 56 3 4 2 15 -3 25 -7 12 -6 19 3 22 9 3 9 7 0 17 -12 14 -6 43 8 35 9 -6 5 18 -7 49 -5 13 -4 17 4 12 12 -7 10 13 -4 48 -5 13 -4 17 3 13 7 -4 10 0 9 9 -1 8 -9 20 -17 25 -12 7 -12 9 1 9 11 0 15 10 14 35 -1 20 -4 38 -8 42 -10 10 -7 25 3 18 10 -6 8 17 -5 49 -5 13 -4 17 4 12 12 -7 10 13 -4 48 -5 13 -4 17 4 12 12 -7 10 13 -4 48 -5 13 -4 17 3 13 7 -4 10 0 9 9 -1 8 -9 20 -17 25 -12 7 -12 9 2 9 11 0 15 10 13 39 -1 22 -5 44 -9 50 -3 6 0 11 7 12 7 0 4 4 -7 9 -13 6 -15 9 -5 9 16 1 21 53 7 67 -4 5 -5 0 -2 -11 6 -16 5 -17 -4 -5 -8 11 -7 18 5 27 10 7 11 13 5 18 -6 3 -11 11 -11 16 0 6 4 8 9 5 5 -4 8 1 7 10 -1 8 -9 20 -17 25 -12 7 -12 9 1 9 12 0 15 20 15 117 0 65 -4 124 -8 131 -5 6 -4 12 2 12 11 0 9 26 -4 37 -4 4 -5 2 0 -6 6 -10 4 -12 -5 -6 -11 7 -10 10 1 19 15 12 17 56 5 95 -6 16 -5 21 2 17 11 -7 10 14 -4 48 -5 13 -4 17 3 13 7 -4 10 0 9 9 -1 8 -9 20 -17 25 -12 7 -12 9 1 9 12 0 15 20 15 117 0 65 -4 124 -8 131 -5 6 -4 12 1 12 7 0 8 19 3 63 -1 5 -7 5 -13 2 -7 -4 -5 0 5 8 16 14 16 16 2 31 -13 12 -13 16 -3 16 14 0 18 44 5 57 -11 10 -8 25 2 18 14 -8 5 34 -11 53 -8 9 -8 13 -2 9 7 -4 14 2 17 13 3 11 1 23 -4 26 -5 3 -9 10 -9 15 0 6 4 8 9 4 10 -6 8 17 -5 49 -5 13 -4 17 4 12 12 -7 10 13 -4 48 -5 13 -4 17 4 12 12 -7 10 13 -4 48 -5 13 -4 17 3 13 7 -4 10 0 9 9 -1 8 -9 20 -17 25 -12 7 -12 9 1 9 11 0 15 10 14 35 -1 20 -4 38 -8 42 -10 10 -7 25 3 18 10 -6 8 17 -5 49 -5 13 -4 17 4 12 12 -7 10 13 -4 48 -5 13 -4 17 4 12 12 -7 10 13 -4 48 -5 13 -4 17 3 13 7 -4 10 0 9 9 -1 8 -9 20 -17 25 -12 7 -12 9 1 9 11 0 15 10 14 35 -1 20 -4 38 -8 42 -10 10 -7 25 3 18 10 -6 8 17 -5 49 -5 13 -4 17 4 12 12 -7 10 13 -4 48 -5 13 -4 17 4 12 12 -7 10 13 -4 48 -5 13 -4 17 3 13 7 -4 10 0 9 9 -1 8 -9 20 -17 25 -12 7 -12 9 1 9 11 0 15 10 14 35 -1 20 -4 38 -8 42 -10 10 -7 25 3 18 10 -6 8 17 -5 49 -5 13 -4 17 4 12 12 -7 10 13 -4 48 -5 13 -4 17 4 12 12 -7 10 13 -4 48 -5 13 -4 17 3 13 7 -4 10 0 9 9 -1 8 -9 20 -17 25 -11 7 -11 9 4 9 15 0 16 3 6 21 -8 16 -8 20 1 14 9 -6 9 -2 1 14 -9 16 -9 21 1 21 9 0 9 3 -2 10 -9 6 -10 10 -3 10 11 0 9 42 -3 62 -3 4 0 8 7 8 10 0 10 3 1 12 -15 15 -16 32 -1 22 8 -4 8 0 0 15 -9 16 -9 21 1 21 9 0 9 3 -2 10 -9 6 -10 10 -3 10 11 0 9 42 -3 62 -3 4 0 8 7 8 8 0 9 3 0 13 -6 8 -8 17 -4 21 4 4 8 48 8 97 1 72 -2 92 -14 99 -14 8 -14 9 -1 10 12 0 15 12 14 55 0 30 -4 58 -7 62 -11 10 -8 25 2 18 10 -6 8 17 -5 49 -5 13 -4 17 3 13 7 -4 10 0 9 9 -1 8 -9 20 -17 25 -12 7 -12 9 1 9 12 0 15 20 15 117 0 65 -4 124 -8 131 -5 6 -4 12 1 12 7 0 8 19 3 63 -1 5 -7 5 -13 2 -7 -4 -5 0 5 8 16 14 16 16 2 31 -13 12 -13 16 -3 16 14 0 18 44 5 57 -11 10 -8 25 2 18 14 -8 5 34 -11 53 -8 9 -8 13 -2 9 7 -4 14 2 17 13 3 11 1 23 -4 26 -5 3 -9 10 -9 15 0 6 4 8 9 4 10 -6 8 17 -5 49 -5 13 -4 17 4 12 12 -7 10 13 -4 48 -5 13 -4 17 4 12 12 -7 10 13 -4 48 -5 13 -4 17 3 13 7 -4 10 0 9 9 -1 8 -9 20 -17 25 -12 7 -12 9 1 9 11 0 15 10 14 35 -1 20 -4 38 -8 42 -10 10 -7 25 3 18 10 -6 8 17 -5 49 -5 13 -4 17 4 12 12 -7 10 13 -4 48 -5 13 -4 17 4 12 12 -7 10 13 -4 48 -5 13 -4 17 3 13 7 -4 10 0 9 9 -1 8 -9 20 -17 25 -12 7 -12 9 1 9 11 0 15 10 14 35 -1 20 -4 38 -8 42 -10 10 -7 25 3 18 10 -6 8 17 -5 49 -5 13 -4 17 4 12 12 -7 10 13 -4 48 -5 13 -4 17 4 12 12 -7 10 13 -4 48 -5 13 -4 17 3 13 7 -4 10 0 9 9 -1 8 -9 20 -17 25 -12 7 -12 9 1 9 11 0 15 10 14 35 -1 20 -4 38 -8 42 -10 10 -7 25 3 18 10 -6 8 17 -5 49 -5 13 -4 17 4 12 12 -7 10 13 -4 48 -5 13 -4 17 4 12 12 -7 10 13 -4 48 -5 13 -4 17 3 13 7 -4 10 0 9 9 -1 8 -9 20 -17 25 -11 7 -11 9 4 9 15 0 16 3 6 21 -8 16 -8 20 1 14 9 -6 9 -2 1 14 -9 16 -9 21 1 21 9 0 9 3 -2 10 -9 6 -10 10 -3 10 11 0 9 42 -3 62 -3 4 0 8 7 8 10 0 10 3 1 12 -15 15 -16 32 -1 22 8 -4 8 0 0 15 -9 16 -9 21 1 21 9 0 9 3 -2 10 -9 6 -10 10 -3 10 11 0 9 42 -3 62 -3 4 0 8 7 8 8 0 9 3 0 13 -6 8 -8 17 -4 21 4 4 8 48 8 97 1 72 -2 92 -14 99 -14 8 -14 9 -1 10 12 0 15 12 14 55 0 30 -4 58 -7 62 -11 10 -8 25 2 18 10 -6 8 17 -5 49 -5 13 -4 17 3 13 7 -4 10 0 9 9 -1 8 -9 20 -17 25 -12 7 -12 9 1 9 12 0 15 20 15 117 0 65 -4 124 -8 131 -5 6 -4 12 1 12 7 0 8 19 3 63 -1 5 -7 5 -13 2 -7 -4 -5 0 5 8 16 14 16 16 2 31 -13 12 -13 16 -3 16 14 0 18 44 5 57 -11 10 -8 25 2 18 14 -8 5 34 -11 53 -8 9 -8 13 -2 9 7 -4 14 2 17 13 3 11 1 23 -4 26 -5 3 -9 10 -9 15 0 6 4 8 9 4 10 -6 8 17 -5 49 -5 13 -4 17 4 12 12 -7 10 13 -4 48 -5 13 -4 17 4 12 12 -7 10 13 -4 48 -5 13 -4 17 3 13 7 -4 10 0 9 9 -1 8 -9 20 -17 25 -12 7 -12 9 1 9 11 0 15 10 14 35 -1 20 -4 38 -8 42 -10 10 -7 25 3 18 10 -6 8 17 -5 49 -5 13 -4 17 4 12 12 -7 10 13 -4 48 -5 13 -4 17 4 12 12 -7 10 13 -4 48 -5 13 -4 17 3 13 7 -4 10 0 9 9 -1 8 -9 20 -17 25 -12 7 -12 9 1 9 11 0 15 10 14 35 -1 20 -4 38 -8 42 -10 10 -7 25 3 18 10 -6 8 17 -5 49 -5 13 -4 17 4 12 12 -7 10 13 -4 48 -5 13 -4 17 4 12 12 -7 10 13 -4 48 -5 13 -4 17 3 13 7 -4 10 0 9 9 -1 8 -9 20 -17 25 -12 7 -12 9 1 9 11 0 15 10 14 35 -1 20 -4 38 -8 42 -10 10 -7 25 3 18 10 -6 8 17 -5 49 -5 13 -4 17 4 12 12 -7 10 13 -4 48 -5 13 -4 17 4 12 12 -7 10 13 -4 48 -5 13 -4 17 3 13 7 -4 10 0 9 9 -1 8 -9 20 -17 25 -12 7 -11 9 2 9 19 0 18 31 -2 56 -9 11 -9 15 -1 10 6 -4 12 -2 12 3 0 6 -5 11 -11 11 -8 0 -8 5 1 15 10 12 10 15 0 15 -10 0 -10 3 -1 14 9 10 9 16 1 21 -8 5 -8 11 1 21 9 11 9 14 0 14 -9 0 -9 5 -1 20 6 12 7 20 1 20 -10 0 -9 19 2 38 5 7 3 12 -4 12 -8 0 -8 4 1 15 9 11 9 15 1 15 -7 0 -10 4 -6 9 3 5 -1 15 -8 23 -18 18 -28 48 -16 48 6 0 7 5 3 12 -4 6 -8 28 -8 47 -1 24 -5 35 -14 33 -8 -1 -11 2 -7 8 3 5 2 10 -4 10 -10 0 -9 19 2 38 5 7 4 12 -2 12 -6 0 -11 9 -11 21 0 13 -5 19 -13 16 -9 -3 -12 4 -9 29 4 34 -18 70 -33 56 -5 -4 -5 2 0 13 4 11 7 26 6 33 0 6 -2 19 -3 27 -1 8 -7 15 -14 15 -18 0 -29 21 -15 29 7 5 4 12 -8 23 -11 9 -21 14 -23 12 -8 -8 -2 31 7 45 5 10 4 12 -3 7 -16 -10 -40 15 -35 35 3 9 -5 23 -17 32 -12 8 -19 20 -16 26 4 5 1 13 -5 17 -8 4 -9 3 -5 -4 4 -7 2 -12 -3 -12 -11 0 -14 9 -14 42 0 10 -7 20 -16 23 -9 3 -17 14 -18 25 -1 11 -9 27 -17 36 -9 8 -16 21 -16 27 0 7 -4 6 -10 -3 -8 -12 -10 -11 -10 7 0 12 -5 25 -12 29 -7 5 -9 2 -4 -7 4 -8 -1 -3 -13 11 -12 15 -16 27 -9 29 5 2 -1 13 -14 25 -13 11 -19 19 -13 16 6 -3 -3 7 -19 22 -17 14 -34 24 -39 21 -4 -2 -7 -1 -6 4 3 20 -2 34 -11 28 -5 -3 -10 1 -10 9 0 15 -12 21 -33 17 -5 -1 -6 3 -2 9 3 5 1 10 -5 10 -7 0 -10 7 -7 14 4 11 1 13 -10 9 -11 -4 -14 -2 -9 5 7 11 -6 17 -27 13 -5 -1 -6 3 -3 8 4 5 2 12 -4 16 -6 4 -8 11 -5 16 3 5 -1 6 -9 3 -14 -5 -20 4 -18 27 1 3 -10 5 -23 4 -16 -2 -22 1 -19 10 3 7 0 16 -7 21 -8 5 -10 3 -4 -7 7 -12 6 -12 -7 -1 -13 10 -17 10 -21 0 -4 -9 -6 -9 -6 2 -1 8 -10 21 -21 28 -11 7 -20 20 -20 29 0 9 -3 14 -6 10 -8 -8 -33 16 -27 26 3 5 -3 5 -13 -1 -14 -7 -22 -6 -31 3 -6 7 -9 16 -6 19 4 3 -1 6 -10 6 -10 0 -17 5 -17 11 0 8 -6 7 -17 -2 -11 -10 -14 -10 -9 -1 4 7 2 12 -4 12 -6 0 -8 5 -5 10 4 6 3 10 -2 9 -20 -4 -33 2 -33 15 0 9 -7 12 -21 9 -13 -4 -25 1 -35 15 -9 13 -23 19 -39 17 -18 -1 -25 3 -25 15 0 12 -7 17 -22 16 -13 -1 -28 5 -33 12 -14 18 -80 28 -70 11 5 -8 4 -10 -3 -5 -7 4 -12 13 -12 19 0 7 -16 17 -35 23 -20 6 -32 7 -28 1 3 -5 0 -7 -8 -5 -8 3 -13 10 -12 16 1 5 -4 13 -13 16 -8 3 -12 1 -9 -4 3 -6 -1 -7 -9 -4 -9 3 -13 11 -9 17 4 6 1 7 -6 3 -26 -16 -60 -13 -66 6 -4 10 -10 16 -15 13 -5 -3 -11 1 -13 7 -4 10 -6 10 -6 1 -1 -9 -8 -10 -25 -3 -13 5 -27 6 -30 2 -10 -9 -46 -10 -40 0 3 4 -2 8 -11 8 -9 0 -13 5 -10 10 5 7 -13 10 -52 8 -32 -1 -64 1 -70 5 -7 5 -13 4 -13 0 0 -12 -74 -10 -82 2 -5 7 -8 6 -8 0 0 -17 -52 -10 -65 9 -11 14 -13 15 -19 1 -3 -8 -10 -15 -16 -15 -6 0 -8 6 -5 13 4 6 -1 3 -9 -7 -15 -19 -22 -11 -17 18 1 5 -4 4 -12 -2 -8 -7 -17 -9 -20 -5 -4 3 -7 2 -7 -4 0 -5 -7 -10 -15 -10 -8 0 -15 3 -15 6 0 4 -21 7 -46 7 -25 1 -41 -2 -34 -6 8 -5 5 -9 -9 -13 -11 -3 -20 -2 -19 2 0 3 0 13 -1 21 -1 12 -4 12 -12 -2 -5 -10 -15 -18 -20 -18 -6 0 -8 4 -5 8 2 4 -4 8 -14 8 -10 0 -16 -4 -14 -8 3 -4 0 -8 -5 -8 -6 0 -11 6 -11 13 0 8 -4 7 -10 -3 -9 -13 -10 -13 -11 0 0 10 -3 8 -9 -5 -8 -18 -9 -18 -9 -2 -1 11 -6 17 -13 14 -7 -2 -12 -10 -10 -16 1 -7 -2 -10 -8 -6 -6 3 -8 10 -6 14 3 4 -11 7 -31 8 -19 0 -30 -3 -23 -7 8 -5 5 -9 -9 -13 -11 -3 -20 -2 -19 2 0 3 0 13 -1 21 -1 12 -4 12 -12 -2 -11 -20 -34 -25 -24 -5 4 6 -1 3 -9 -7 -15 -19 -22 -11 -17 18 1 5 -4 4 -12 -2 -8 -7 -17 -9 -20 -5 -4 3 -7 2 -7 -4 0 -5 -7 -10 -15 -10 -8 0 -15 3 -15 6 0 4 -21 7 -46 7 -25 1 -41 -2 -34 -6 8 -5 5 -9 -9 -13 -11 -3 -20 -2 -19 2 0 3 0 13 -1 21 -1 12 -4 12 -12 -2 -5 -10 -15 -18 -20 -18 -6 0 -8 4 -5 8 2 4 -4 8 -14 8 -10 0 -16 -4 -14 -8 3 -4 0 -8 -5 -8 -6 0 -11 6 -11 13 0 8 -4 7 -10 -3 -9 -13 -10 -13 -11 0 0 10 -3 8 -9 -5 -8 -18 -9 -18 -9 -2 -1 11 -6 17 -14 14 -6 -2 -11 -10 -9 -16 1 -7 -2 -10 -8 -6 -6 3 -8 10 -6 14 3 4 -11 7 -31 8 -19 0 -30 -3 -23 -7 8 -5 5 -9 -9 -13 -11 -3 -20 -2 -19 2 0 3 0 13 -1 21 -1 12 -4 12 -12 -2 -11 -20 -34 -25 -24 -5 4 6 -1 3 -9 -7 -15 -19 -22 -11 -17 18 1 5 -4 4 -12 -2 -8 -7 -17 -9 -20 -5 -4 3 -7 2 -7 -4 0 -5 -7 -10 -15 -10 -8 0 -15 3 -15 6 0 4 -21 7 -46 7 -25 1 -41 -2 -34 -6 8 -5 5 -9 -9 -13 -11 -3 -20 -2 -19 2 0 3 0 13 -1 21 -1 12 -4 12 -12 -2 -5 -10 -15 -18 -20 -18 -6 0 -8 4 -5 8 2 4 -4 8 -14 8 -10 0 -16 -4 -14 -8 3 -4 0 -8 -5 -8 -6 0 -11 6 -11 13 0 8 -4 7 -10 -3 -9 -13 -10 -13 -11 0 0 10 -3 8 -9 -5 -8 -18 -9 -18 -9 -2 -1 11 -6 17 -13 14 -7 -2 -12 -10 -10 -16 1 -7 -2 -10 -8 -6 -6 3 -8 10 -6 14 3 4 -11 7 -31 8 -19 0 -30 -3 -23 -7 8 -5 5 -9 -9 -13 -11 -3 -20 -2 -19 2 0 3 0 13 -1 21 -1 12 -4 12 -12 -2 -11 -20 -34 -25 -24 -5 4 6 -1 3 -9 -7 -15 -19 -22 -11 -17 18 1 5 -4 4 -12 -2 -8 -7 -17 -9 -20 -5 -4 3 -7 2 -7 -4 0 -5 -7 -10 -15 -10 -8 0 -15 3 -15 6 0 4 -21 7 -46 7 -25 1 -41 -2 -34 -6 8 -5 5 -9 -9 -13 -11 -3 -20 -2 -19 2 0 3 0 13 -1 21 -1 12 -4 12 -12 -2 -5 -10 -15 -18 -20 -18 -6 0 -8 4 -5 8 2 4 -4 8 -14 8 -10 0 -16 -4 -14 -8 3 -4 0 -8 -5 -8 -6 0 -11 6 -11 13 0 8 -4 7 -10 -3 -9 -13 -10 -13 -11 0 0 10 -3 8 -9 -5 -8 -18 -9 -18 -9 -2 -1 11 -6 17 -13 14 -7 -2 -12 -10 -10 -16 1 -7 -2 -10 -8 -6 -6 3 -8 10 -6 14 3 4 -11 7 -31 8 -19 0 -30 -3 -23 -7 8 -5 5 -9 -9 -13 -11 -3 -20 -2 -19 2 0 3 0 13 -1 21 -1 12 -4 12 -12 -2 -11 -20 -34 -25 -24 -5 4 6 -1 3 -9 -7 -15 -19 -22 -11 -17 18 1 5 -4 4 -12 -2 -8 -7 -17 -9 -20 -5 -4 3 -7 2 -7 -4 0 -5 -7 -10 -15 -10 -8 0 -15 3 -15 6 0 4 -21 7 -46 7 -25 1 -41 -2 -34 -6 8 -5 5 -9 -9 -13 -11 -3 -20 -2 -19 2 0 3 0 13 -1 21 -1 12 -4 12 -12 -2 -5 -10 -15 -18 -20 -18 -6 0 -8 4 -5 8 2 4 -4 8 -14 8 -10 0 -16 -4 -14 -8 3 -4 0 -8 -5 -8 -6 0 -11 6 -11 13 0 8 -4 7 -10 -3 -9 -13 -10 -13 -11 0 0 10 -3 8 -9 -5 -8 -18 -9 -18 -9 -2 -1 11 -6 17 -13 14 -7 -2 -12 -10 -10 -16 1 -7 -2 -10 -8 -6 -6 3 -8 10 -6 14 3 4 -11 7 -31 8 -19 0 -30 -3 -23 -7 8 -5 5 -9 -9 -13 -11 -3 -20 -2 -19 2 0 3 0 13 -1 21 -1 12 -4 12 -12 -2 -11 -20 -34 -25 -24 -5 4 6 -1 3 -9 -7 -15 -19 -22 -11 -17 18 1 5 -4 4 -12 -2 -8 -7 -17 -9 -20 -5 -4 3 -7 2 -7 -4 0 -5 -7 -10 -15 -10 -8 0 -15 3 -15 6 0 4 -21 7 -46 7 -25 1 -41 -2 -34 -6 8 -5 5 -9 -9 -13 -11 -3 -20 -2 -19 2 0 3 0 13 -1 21 -1 12 -4 12 -12 -2 -5 -10 -15 -18 -20 -18 -6 0 -8 4 -5 8 2 4 -4 8 -14 8 -10 0 -16 -4 -14 -8 3 -4 0 -8 -5 -8 -6 0 -11 6 -11 13 0 8 -4 7 -10 -3 -9 -13 -10 -13 -11 0 0 10 -3 8 -9 -5 -8 -18 -9 -18 -9 -2 -1 11 -6 17 -13 14 -7 -2 -12 -10 -10 -16 1 -7 -2 -10 -8 -6 -6 3 -8 10 -6 14 3 4 -11 7 -31 8 -19 0 -30 -3 -23 -7 8 -5 5 -9 -9 -13 -11 -3 -20 -2 -19 2 0 3 0 13 -1 21 -1 12 -4 12 -12 -2 -11 -20 -34 -25 -24 -5 4 6 -1 3 -9 -7 -15 -19 -22 -11 -17 18 1 5 -4 4 -12 -2 -8 -7 -17 -9 -20 -5 -4 3 -7 2 -7 -4 0 -5 -7 -10 -15 -10 -8 0 -15 3 -15 6 0 4 -21 7 -46 7 -25 1 -41 -2 -34 -6 8 -5 5 -9 -9 -13 -11 -3 -20 -2 -19 2 0 3 0 13 -1 21 -1 12 -4 12 -12 -2 -5 -10 -15 -18 -20 -18 -6 0 -8 4 -5 8 2 4 -4 8 -14 8 -10 0 -16 -4 -14 -8 3 -4 0 -8 -5 -8 -6 0 -11 6 -11 13 0 8 -4 7 -10 -3 -9 -13 -10 -13 -11 0 0 10 -3 8 -9 -5 -8 -18 -9 -18 -9 -2 -1 11 -6 17 -14 14 -6 -2 -11 -10 -9 -16 1 -7 -2 -10 -8 -6 -6 3 -8 10 -6 14 3 4 -11 7 -31 8 -19 0 -30 -3 -23 -7 8 -5 5 -9 -9 -13 -11 -3 -20 -2 -19 2 0 3 0 13 -1 21 -1 12 -4 12 -12 -2 -11 -20 -34 -25 -24 -5 4 6 -1 3 -9 -7 -15 -19 -22 -11 -17 18 1 5 -4 4 -12 -2 -8 -7 -17 -9 -20 -5 -4 3 -7 2 -7 -4 0 -5 -7 -10 -15 -10 -8 0 -15 3 -15 6 0 4 -21 7 -46 7 -25 1 -41 -2 -34 -6 8 -5 5 -9 -9 -13 -11 -3 -20 -2 -19 2 0 3 0 13 -1 21 -1 12 -4 12 -12 -2 -5 -10 -15 -18 -20 -18 -6 0 -8 4 -5 8 2 4 -4 8 -14 8 -10 0 -16 -4 -14 -8 3 -4 0 -8 -5 -8 -6 0 -11 6 -11 13 0 8 -4 7 -10 -3 -9 -13 -10 -13 -11 0 0 10 -3 8 -9 -5 -8 -18 -9 -18 -9 -2 -1 11 -6 17 -13 14 -7 -2 -12 -10 -10 -16 1 -7 -2 -10 -8 -6 -6 3 -8 10 -6 14 3 4 -11 7 -31 8 -19 0 -30 -3 -23 -7 8 -5 5 -9 -9 -13 -11 -3 -20 -2 -19 2 0 3 0 13 -1 21 -1 12 -4 12 -12 -2 -11 -20 -34 -25 -24 -5 4 6 -1 3 -9 -7 -15 -19 -22 -11 -17 18 1 5 -4 4 -12 -2 -8 -7 -17 -9 -20 -5 -4 3 -7 2 -7 -4 0 -5 -7 -10 -15 -10 -8 0 -15 3 -15 6 0 4 -21 7 -46 7 -25 1 -41 -2 -34 -6 8 -5 5 -9 -9 -13 -11 -3 -20 -2 -19 2 0 3 0 13 -1 21 -1 12 -4 12 -12 -2 -5 -10 -15 -18 -20 -18 -6 0 -8 4 -5 8 2 4 -4 8 -14 8 -10 0 -16 -4 -14 -8 3 -4 0 -8 -5 -8 -6 0 -11 6 -11 13 0 8 -4 7 -10 -3 -9 -13 -10 -13 -11 0 0 10 -3 8 -9 -5 -8 -18 -9 -18 -9 -2 -1 11 -6 17 -13 14 -7 -2 -12 -10 -10 -16 1 -7 -2 -10 -8 -6 -6 3 -8 10 -6 14 3 4 -11 7 -31 8 -19 0 -30 -3 -23 -7 8 -5 5 -9 -9 -13 -11 -3 -20 -2 -19 2 0 3 0 13 -1 21 -1 12 -4 12 -12 -2 -11 -20 -34 -25 -24 -5 4 6 -1 3 -9 -7 -15 -19 -22 -11 -17 18 1 5 -4 4 -12 -2 -8 -7 -17 -9 -20 -5 -4 3 -7 2 -7 -4 0 -5 -7 -10 -15 -10 -8 0 -15 3 -15 6 0 4 -21 7 -46 7 -25 1 -41 -2 -34 -6 8 -5 5 -9 -9 -13 -11 -3 -20 -2 -19 2 0 3 0 13 -1 21 -1 12 -4 12 -12 -2 -5 -10 -15 -18 -20 -18 -6 0 -8 4 -5 8 2 4 -4 8 -14 8 -10 0 -16 -4 -14 -8 3 -4 0 -8 -5 -8 -6 0 -11 6 -11 13 0 8 -4 7 -10 -3 -9 -13 -10 -13 -11 0 0 10 -3 8 -9 -5 -8 -18 -9 -18 -9 -2 -1 11 -6 17 -13 14 -7 -2 -12 -10 -10 -16 1 -7 -2 -10 -8 -6 -6 3 -8 10 -6 14 3 4 -11 7 -31 8 -19 0 -30 -3 -23 -7 8 -5 5 -9 -9 -13 -11 -3 -20 -2 -19 2 0 3 0 13 -1 21 -1 12 -4 12 -12 -2 -11 -20 -34 -25 -24 -5 4 6 -1 3 -9 -7 -15 -19 -22 -11 -17 18 1 5 -4 4 -12 -2 -8 -7 -17 -9 -20 -5 -4 3 -7 2 -7 -4 0 -5 -7 -10 -15 -10 -8 0 -15 3 -15 6 0 4 -21 7 -46 7 -25 1 -41 -2 -34 -6 8 -5 5 -9 -9 -13 -11 -3 -20 -2 -19 2 0 3 0 13 -1 21 -1 12 -4 12 -12 -2 -5 -10 -15 -18 -20 -18 -6 0 -8 4 -5 8 2 4 -4 8 -14 8 -10 0 -16 -4 -14 -8 3 -4 0 -8 -5 -8 -6 0 -11 6 -11 13 0 8 -4 7 -10 -3 -9 -13 -10 -13 -11 0 0 10 -3 8 -9 -5 -8 -18 -9 -18 -9 -2 -1 11 -6 17 -13 14 -7 -2 -12 -10 -10 -16 1 -7 -2 -10 -8 -6 -6 3 -8 10 -6 14 3 4 -11 7 -31 8 -19 0 -30 -3 -23 -7 8 -5 5 -9 -9 -13 -11 -3 -20 -2 -19 2 0 3 0 13 -1 21 -1 12 -4 12 -12 -2 -11 -20 -34 -25 -24 -5 4 6 -1 3 -9 -7 -15 -19 -22 -11 -17 18 1 5 -4 4 -12 -2 -8 -7 -17 -9 -20 -5 -4 3 -7 2 -7 -4 0 -5 -7 -10 -15 -10 -8 0 -15 3 -15 6 0 4 -21 7 -46 7 -25 1 -41 -2 -34 -6 8 -5 5 -9 -9 -13 -11 -3 -20 -2 -19 2 0 3 0 13 -1 21 -1 12 -4 12 -12 -2 -5 -10 -15 -18 -20 -18 -6 0 -8 4 -5 8 2 4 -4 8 -14 8 -10 0 -16 -4 -14 -8 3 -4 0 -8 -5 -8 -6 0 -11 6 -11 13 0 8 -4 7 -10 -3 -9 -13 -10 -13 -11 0 0 10 -3 8 -9 -5 -8 -18 -9 -18 -9 -2 -1 11 -6 17 -13 14 -7 -2 -12 -10 -10 -16 1 -7 -2 -10 -8 -6 -6 3 -8 10 -6 14 3 4 -11 7 -31 8 -19 0 -30 -3 -23 -7 8 -5 5 -9 -9 -13 -11 -3 -20 -2 -19 2 0 3 0 13 -1 21 -1 12 -4 12 -12 -2 -11 -20 -34 -25 -24 -5 4 6 -1 3 -9 -7 -15 -19 -22 -11 -17 18 1 5 -4 4 -12 -2 -8 -7 -17 -9 -20 -5 -4 3 -7 2 -7 -4 0 -5 -7 -10 -15 -10 -8 0 -15 3 -15 6 0 4 -21 7 -46 7 -25 1 -41 -2 -34 -6 8 -5 5 -9 -9 -13 -11 -3 -20 -2 -19 2 0 3 0 13 -1 21 -1 12 -4 12 -12 -2 -5 -10 -15 -18 -20 -18 -6 0 -8 4 -5 8 2 4 -4 8 -14 8 -10 0 -16 -4 -14 -8 3 -4 0 -8 -5 -8 -6 0 -11 6 -11 13 0 8 -4 7 -10 -3 -9 -13 -10 -13 -11 0 0 10 -3 8 -9 -5 -8 -18 -9 -18 -9 -2 -1 11 -6 17 -13 14 -7 -2 -12 -10 -10 -16 1 -7 -2 -10 -8 -6 -6 3 -8 10 -6 14 3 4 -11 7 -31 8 -19 0 -30 -3 -23 -7 8 -5 5 -9 -9 -13 -11 -3 -20 -2 -19 2 0 3 0 13 -1 21 -1 12 -4 12 -12 -2 -11 -20 -34 -25 -24 -5 4 6 -1 3 -9 -7 -15 -19 -22 -11 -17 18 1 5 -4 4 -12 -2 -8 -7 -17 -9 -20 -5 -4 3 -7 2 -7 -4 0 -5 -7 -10 -15 -10 -8 0 -15 3 -15 6 0 4 -21 7 -46 7 -25 1 -41 -2 -34 -6 8 -5 5 -9 -9 -13 -11 -3 -20 -2 -19 2 0 3 0 13 -1 21 -1 12 -4 12 -12 -2 -5 -10 -15 -18 -20 -18 -6 0 -8 4 -5 8 2 4 -4 8 -14 8 -10 0 -16 -4 -14 -8 3 -4 0 -8 -5 -8 -6 0 -11 6 -11 13 0 8 -4 7 -10 -3 -9 -13 -10 -13 -11 0 0 10 -3 8 -9 -5 -8 -18 -9 -18 -9 -2 -1 11 -6 17 -13 14 -7 -2 -12 -10 -10 -16 1 -7 -2 -10 -8 -6 -6 3 -8 10 -6 14 3 4 -11 7 -31 8 -19 0 -30 -3 -23 -7 8 -5 5 -9 -9 -13 -11 -3 -20 -2 -19 2 0 3 0 13 -1 21 -1 12 -4 12 -12 -2 -11 -20 -34 -25 -24 -5 4 6 -1 3 -9 -7 -15 -19 -22 -11 -17 18 1 5 -4 4 -12 -2 -8 -7 -17 -9 -20 -5 -4 3 -7 2 -7 -4 0 -5 -7 -10 -15 -10 -8 0 -15 3 -15 6 0 4 -21 7 -46 7 -25 1 -41 -2 -34 -6 8 -5 5 -9 -9 -13 -11 -3 -20 -2 -19 2 0 3 0 13 -1 21 -1 12 -4 12 -12 -2 -5 -10 -15 -18 -20 -18 -6 0 -8 4 -5 8 2 4 -4 8 -14 8 -10 0 -16 -4 -14 -8 3 -4 0 -8 -5 -8 -6 0 -11 6 -11 13 0 8 -4 7 -10 -3 -9 -13 -10 -13 -11 0 0 10 -3 8 -9 -5 -8 -18 -9 -18 -9 -2 -1 11 -6 17 -13 14 -7 -2 -12 -10 -10 -16 1 -7 -2 -10 -8 -6 -6 3 -8 10 -6 14 3 4 -11 7 -31 8 -19 0 -30 -3 -23 -7 8 -5 5 -9 -9 -13 -11 -3 -20 -2 -19 2 0 3 0 13 -1 21 -1 12 -4 12 -12 -2 -11 -20 -34 -25 -24 -5 4 6 -1 3 -9 -7 -15 -19 -22 -11 -17 18 1 5 -4 4 -12 -2 -8 -7 -17 -9 -20 -5 -4 3 -7 2 -7 -4 0 -5 -7 -10 -15 -10 -8 0 -15 3 -15 6 0 4 -21 7 -46 7 -25 1 -41 -2 -34 -6 8 -5 5 -9 -9 -13 -11 -3 -20 -2 -19 2 0 3 0 13 -1 21 -1 12 -4 12 -12 -2 -5 -10 -15 -18 -20 -18 -6 0 -8 4 -5 8 2 4 -4 8 -14 8 -10 0 -16 -4 -14 -8 3 -4 0 -8 -5 -8 -6 0 -11 6 -11 13 0 8 -4 7 -10 -3 -9 -13 -10 -13 -11 0 0 10 -3 8 -9 -5 -8 -18 -9 -18 -9 -2 -1 11 -6 17 -13 14 -7 -2 -12 -10 -10 -16 1 -7 -2 -10 -8 -6 -6 3 -8 10 -6 14 3 4 -11 7 -31 8 -19 0 -30 -3 -23 -7 8 -5 5 -9 -9 -13 -11 -3 -20 -2 -19 2 0 3 0 13 -1 21 -1 12 -4 12 -12 -2 -11 -20 -34 -25 -24 -5 4 6 -1 3 -9 -7 -15 -19 -22 -11 -17 18 1 5 -4 4 -12 -2 -8 -7 -17 -9 -20 -5 -4 3 -7 2 -7 -4 0 -5 -7 -10 -15 -10 -8 0 -15 3 -15 6 0 4 -21 7 -46 7 -25 1 -41 -2 -34 -6 8 -5 5 -9 -9 -13 -11 -3 -20 -2 -19 2 0 3 0 13 -1 21 -1 12 -4 12 -12 -2 -5 -10 -15 -18 -20 -18 -6 0 -8 4 -5 8 2 4 -4 8 -14 8 -10 0 -16 -4 -14 -8 3 -4 0 -8 -5 -8 -6 0 -11 6 -11 13 0 8 -4 7 -10 -3 -9 -13 -10 -13 -11 0 0 10 -3 8 -9 -5 -8 -18 -9 -18 -9 -2 -1 11 -6 17 -13 14 -7 -2 -12 -10 -10 -16 1 -7 -2 -10 -8 -6 -6 3 -8 10 -6 14 3 4 -11 7 -31 8 -19 0 -30 -3 -23 -7 8 -5 5 -9 -9 -13 -12 -3 -19 -2 -17 2 3 4 1 13 -3 20 -6 10 -10 9 -14 -3z m10030 -3361 c0 -8 -4 -12 -9 -9 -5 3 -6 10 -3 15 9 13 12 11 12 -6z m1 -90 c-3 -3 -9 2 -12 12 -6 14 -5 15 5 6 7 -7 10 -15 7 -18z m2 -400 c0 -5 -5 -3 -10 5 -5 8 -10 20 -10 25 0 6 5 3 10 -5 5 -8 10 -19 10 -25z m-5 -324 c3 -5 2 -12 -3 -15 -5 -3 -9 1 -9 9 0 17 3 19 12 6z m0 -160 c3 -5 2 -12 -3 -15 -5 -3 -9 1 -9 9 0 17 3 19 12 6z m2 -1586 c0 -8 -4 -12 -9 -9 -5 3 -6 10 -3 15 9 13 12 11 12 -6z m1 -90 c-3 -3 -9 2 -12 12 -6 14 -5 15 5 6 7 -7 10 -15 7 -18z m2 -400 c0 -5 -5 -3 -10 5 -5 8 -10 20 -10 25 0 6 5 3 10 -5 5 -8 10 -19 10 -25z m-5 -324 c3 -5 2 -12 -3 -15 -5 -3 -9 1 -9 9 0 17 3 19 12 6z m0 -160 c3 -5 2 -12 -3 -15 -5 -3 -9 1 -9 9 0 17 3 19 12 6z m2 -1586 c0 -8 -4 -12 -9 -9 -5 3 -6 10 -3 15 9 13 12 11 12 -6z m1 -90 c-3 -3 -9 2 -12 12 -6 14 -5 15 5 6 7 -7 10 -15 7 -18z m0 -680 c-3 -3 -9 2 -12 12 -6 14 -5 15 5 6 7 -7 10 -15 7 -18z m0 -280 c-3 -3 -9 2 -12 12 -6 14 -5 15 5 6 7 -7 10 -15 7 -18z m-1558 -2339 c0 -3 -4 -8 -10 -11 -5 -3 -10 -1 -10 4 0 6 5 11 10 11 6 0 10 -2 10 -4z" transform="translate(0.000000,1200.000000) scale(0.100000,-0.100000)"/><path d="M236 1005 c4 -8 11 -15 16 -15 6 0 5 6 -2 15 -7 8 -14 15 -16 15 -2 0 -1 -7 2 -15z" transform="translate(0.000000,1200.000000) scale(0.100000,-0.100000)"/></g></svg>